<svg width="81" height="18" viewBox="0 0 81 18" fill="none" xmlns="http://www.w3.org/2000/svg">
<path d="M0 0.000976562H3.81846V7.94353H11.151V0.000976562H14.9437V17.8217H11.151V10.6684H3.81846V17.8217H0V0.000976562Z" fill="#F4F4F4"/>
<path d="M17.6535 15.9112C16.3807 14.6384 15.7437 13.1066 15.7437 11.3158C15.7437 9.52502 16.3807 7.99321 17.6535 6.72039C18.9263 5.44757 20.4581 4.81055 22.2489 4.81055C24.0397 4.81055 25.5715 5.44757 26.8443 6.72039C28.1171 7.99321 28.7542 9.52502 28.7542 11.3158C28.7542 13.1066 28.1171 14.6384 26.8443 15.9112C25.5715 17.184 24.0397 17.8211 22.2489 17.8211C20.4581 17.8211 18.9263 17.184 17.6535 15.9112ZM24.1453 13.2134C24.6706 12.688 24.9345 12.0547 24.9345 11.317C24.9345 10.5794 24.6706 9.94725 24.1453 9.42069C23.6187 8.89536 22.9866 8.63147 22.2489 8.63147C21.5112 8.63147 20.8779 8.89536 20.3526 9.42069C19.826 9.94725 19.5633 10.5794 19.5633 11.317C19.5633 12.0547 19.826 12.688 20.3526 13.2134C20.8779 13.7399 21.5112 14.0026 22.2489 14.0026C22.9866 14.0026 23.6187 13.7399 24.1453 13.2134Z" fill="#F4F4F4"/>
<path d="M29.5552 4.81176H33.3736V6.41598C34.1886 5.56784 35.1264 5.05356 36.1869 4.87558C37.2473 4.69761 38.2661 4.85472 39.2419 5.34691C40.2177 5.8391 41.0118 6.61114 41.6218 7.66425C42.1312 6.78175 42.7891 6.08581 43.5943 5.57643C44.4007 5.06706 45.2783 4.81299 46.2295 4.81299C47.7564 4.81299 49.0636 5.45001 50.1498 6.72283C51.2361 7.99565 51.7786 9.52378 51.7786 11.306V17.8235H47.9602V11.306C47.9602 10.5769 47.6963 9.94846 47.1709 9.4219C46.6444 8.89657 46.0086 8.63268 45.2611 8.63268C44.5136 8.63268 43.8778 8.89657 43.3512 9.4219C42.8247 9.94846 42.562 10.5757 42.562 11.306V17.8235H38.7436V11.306C38.7436 10.5769 38.4797 9.94846 37.9543 9.4219C37.4278 8.89657 36.7957 8.63268 36.058 8.63268C35.3203 8.63268 34.687 8.89657 34.1616 9.4219C33.6351 9.94846 33.3724 10.5757 33.3724 11.306V17.8235H29.554V4.81421L29.5552 4.81176Z" fill="#F4F4F4"/>
<path d="M54.4885 15.9116C53.2156 14.6387 52.5786 13.1106 52.5786 11.3296C52.5786 9.54868 53.2156 8.02056 54.4885 6.74774C55.7613 5.47491 57.2894 4.83789 59.0704 4.83789C60.4966 4.83789 61.7768 5.25766 62.9146 6.09844C64.0512 6.93798 64.8318 8.02056 65.2565 9.34493L57.7976 13.647C58.4248 14.0029 59.0876 14.0839 59.7835 13.8888C60.4794 13.6936 61.006 13.2825 61.3619 12.654L64.6968 14.5639C64.1199 15.5654 63.3307 16.3583 62.3291 16.9438C61.3276 17.5293 60.2413 17.8226 59.0704 17.8226C57.2882 17.8226 55.7613 17.1856 54.4885 15.9128V15.9116ZM60.3444 9.0123C59.7332 8.72386 59.1391 8.6269 58.5622 8.71895C57.9853 8.81223 57.4882 9.10067 57.0734 9.58427C56.6573 10.0679 56.4413 10.6325 56.4241 11.2769L60.3444 9.01107V9.0123Z" fill="#F4F4F4"/>
<path d="M71.3257 8.91097L66.0564 0H70.4861L73.5411 5.16861L76.5961 0H81.0001L75.7554 8.91097L81.0001 17.822H76.5961L73.5411 12.6533L70.4861 17.822H66.0564L71.3257 8.91097Z" fill="#F4F4F4"/>
</svg>
